<mxfile host="Electron" agent="Mozilla/5.0 (Macintosh; Intel Mac OS X 10_15_7) AppleWebKit/537.36 (KHTML, like Gecko) draw.io/25.0.2 Chrome/128.0.6613.186 Electron/32.2.5 Safari/537.36" version="25.0.2">
  <diagram name="Page-1" id="wTE1o5r4mKr-qkf2jaJI">
    <mxGraphModel dx="1420" dy="865" grid="1" gridSize="10" guides="1" tooltips="1" connect="1" arrows="1" fold="1" page="1" pageScale="1" pageWidth="827" pageHeight="1169" math="0" shadow="0">
      <root>
        <mxCell id="0" />
        <mxCell id="1" parent="0" />
        <mxCell id="9vr1X6mau_vPhgH4JwPO-3" value="" style="edgeStyle=orthogonalEdgeStyle;rounded=0;orthogonalLoop=1;jettySize=auto;html=1;" edge="1" parent="1" source="9vr1X6mau_vPhgH4JwPO-1" target="9vr1X6mau_vPhgH4JwPO-2">
          <mxGeometry relative="1" as="geometry" />
        </mxCell>
        <mxCell id="9vr1X6mau_vPhgH4JwPO-8" value="(generator)" style="edgeLabel;html=1;align=center;verticalAlign=middle;resizable=0;points=[];" vertex="1" connectable="0" parent="9vr1X6mau_vPhgH4JwPO-3">
          <mxGeometry x="-0.3667" y="4" relative="1" as="geometry">
            <mxPoint as="offset" />
          </mxGeometry>
        </mxCell>
        <mxCell id="9vr1X6mau_vPhgH4JwPO-1" value="Trouver" style="rounded=0;whiteSpace=wrap;html=1;" vertex="1" parent="1">
          <mxGeometry x="40" y="200" width="120" height="60" as="geometry" />
        </mxCell>
        <mxCell id="9vr1X6mau_vPhgH4JwPO-5" value="" style="edgeStyle=orthogonalEdgeStyle;rounded=0;orthogonalLoop=1;jettySize=auto;html=1;" edge="1" parent="1" source="9vr1X6mau_vPhgH4JwPO-2" target="9vr1X6mau_vPhgH4JwPO-4">
          <mxGeometry relative="1" as="geometry" />
        </mxCell>
        <mxCell id="9vr1X6mau_vPhgH4JwPO-2" value="Analyser la fonction" style="rounded=0;whiteSpace=wrap;html=1;" vertex="1" parent="1">
          <mxGeometry x="280" y="200" width="120" height="60" as="geometry" />
        </mxCell>
        <mxCell id="9vr1X6mau_vPhgH4JwPO-4" value="Afficher le rÃ©sultat" style="rounded=0;whiteSpace=wrap;html=1;" vertex="1" parent="1">
          <mxGeometry x="520" y="200" width="120" height="60" as="geometry" />
        </mxCell>
      </root>
    </mxGraphModel>
  </diagram>
</mxfile>
